<svg t="1730168913240" class="icon" viewBox="0 0 1024 1024" version="1.1" xmlns="http://www.w3.org/2000/svg" p-id="10974" width="100%" height="100%"><path d="M926 215.173333l-384-170.666666a21.333333 21.333333 0 0 0-17.333333 0l-384 170.666666A21.333333 21.333333 0 0 0 128 234.666667v217.813333c0 219.866667 129.373333 419.02 329.6 507.333333 32.793333 14.466667 57.566667 21.5 75.733333 21.5s42.94-7.033333 75.733334-21.5c200.226667-88.333333 329.6-287.486667 329.6-507.333333V234.666667a21.333333 21.333333 0 0 0-12.666667-19.493334z m-30 237.333334c0 202.973333-119.386667 386.8-304.153333 468.313333C556.6 936.346667 540.06 938.666667 533.333333 938.666667s-23.266667-2.32-58.513333-17.873334C290.053333 839.28 170.666667 655.453333 170.666667 452.48V248.533333L533.333333 87.333333l362.666667 161.2z m-362.666667 8l112.913334-112.926667a21.333333 21.333333 0 0 1 30.173333 30.173333L563.5 490.666667l112.92 112.913333a21.333333 21.333333 0 0 1-30.173333 30.173333L533.333333 520.833333 420.42 633.753333a21.333333 21.333333 0 0 1-30.173333-30.173333L503.166667 490.666667 390.246667 377.753333a21.333333 21.333333 0 0 1 30.173333-30.173333z" fill="#d81e06" p-id="10975"></path></svg>